<svg width="96" height="96" viewBox="0 0 96 96" fill="none" xmlns="http://www.w3.org/2000/svg">
  <path d="M48 74C62.3594 74 74 62.3594 74 48C74 33.6406 62.3594 22 48 22C33.6406 22 22 33.6406 22 48C22 62.3594 33.6406 74 48 74Z" fill="#E5E5E4"/>
  <path d="M47.998 73.482C62.0724 73.482 73.482 62.0724 73.482 47.998C73.482 33.9235 62.0724 22.5139 47.998 22.5139C33.9235 22.5139 22.5139 33.9235 22.5139 47.998C22.5139 62.0724 33.9235 73.482 47.998 73.482Z" fill="white"/>
  <path d="M48.0021 71.4448C60.9492 71.4448 71.4448 60.9492 71.4448 48.0021C71.4448 35.055 60.9492 24.5593 48.0021 24.5593C35.055 24.5593 24.5593 35.055 24.5593 48.0021C24.5593 60.9492 35.055 71.4448 48.0021 71.4448Z" fill="#4A8CFF"/>
  <path d="M61.7626 40.1139L55.1338 44.9592V51.0507L61.7626 55.8959C62.2353 56.2611 62.7836 56.3686 62.7836 55.391V40.6189C62.7836 39.7488 62.3427 39.6413 61.7626 40.1139Z" fill="white"/>
  <path d="M53.2967 56.1543C53.748 56.1543 54.1131 55.7891 54.1241 55.3379V44.3255C54.1131 41.8329 52.0828 39.824 49.5903 39.8344H33.5281C33.0768 39.8454 32.7117 40.1995 32.7007 40.6618V51.6632C32.7117 54.1558 34.742 56.1647 37.2345 56.1543H53.2967Z" fill="white"/>
</svg>
